<?xml version="1.0" encoding="us-ascii" standalone="no"?><svg xmlns="http://www.w3.org/2000/svg" xmlns:xlink="http://www.w3.org/1999/xlink" contentStyleType="text/css" height="810px" preserveAspectRatio="none" style="width:686px;height:810px;background:#FFFFFF;" version="1.1" viewBox="0 0 686 810" width="686px" zoomAndPan="magnify"><defs/><g><rect fill="#F1F1F1" height="36.2969" rx="12.5" ry="12.5" style="stroke:#181818;stroke-width:1.5;" width="248" x="10" y="385.9297"/><text fill="#000000" font-family="sans-serif" font-size="14" lengthAdjust="spacing" textLength="228" x="20" y="408.9248">User Profile Management System</text><rect fill="#F1F1F1" height="36.2969" rx="12.5" ry="12.5" style="stroke:#181818;stroke-width:1.5;" width="88" x="308" y="217.0391"/><text fill="#000000" font-family="sans-serif" font-size="14" lengthAdjust="spacing" textLength="68" x="318" y="240.0342">Front-End</text><rect fill="#F1F1F1" height="36.2969" rx="12.5" ry="12.5" style="stroke:#181818;stroke-width:1.5;" width="91" x="446" y="20"/><text fill="#000000" font-family="sans-serif" font-size="14" lengthAdjust="spacing" textLength="71" x="456" y="42.9951">index.html</text><path d="M396,235.1875 L406,235.1875 C421,235.1875 421,38.1484 436,38.1484 L446,38.1484 " fill="none" style="stroke:#181818;stroke-width:1.0;"/><rect fill="#F1F1F1" height="36.2969" rx="12.5" ry="12.5" style="stroke:#181818;stroke-width:1.5;" width="96" x="446" y="76.2969"/><text fill="#000000" font-family="sans-serif" font-size="14" lengthAdjust="spacing" textLength="76" x="456" y="99.292">admin.html</text><path d="M396,235.1875 L406,235.1875 C421,235.1875 421,94.4453 436,94.4453 L446,94.4453 " fill="none" style="stroke:#181818;stroke-width:1.0;"/><rect fill="#F1F1F1" height="36.2969" rx="12.5" ry="12.5" style="stroke:#181818;stroke-width:1.5;" width="87" x="446" y="132.5938"/><text fill="#000000" font-family="sans-serif" font-size="14" lengthAdjust="spacing" textLength="67" x="456" y="155.5889">login.html</text><path d="M396,235.1875 L406,235.1875 C421,235.1875 421,150.7422 436,150.7422 L446,150.7422 " fill="none" style="stroke:#181818;stroke-width:1.0;"/><rect fill="#F1F1F1" height="36.2969" rx="12.5" ry="12.5" style="stroke:#181818;stroke-width:1.5;" width="88" x="446" y="188.8906"/><text fill="#000000" font-family="sans-serif" font-size="14" lengthAdjust="spacing" textLength="68" x="456" y="211.8857">styles.css</text><path d="M396,235.1875 L406,235.1875 C421,235.1875 421,207.0391 436,207.0391 L446,207.0391 " fill="none" style="stroke:#181818;stroke-width:1.0;"/><rect fill="#F1F1F1" height="36.2969" rx="12.5" ry="12.5" style="stroke:#181818;stroke-width:1.5;" width="126" x="446" y="245.1875"/><text fill="#000000" font-family="sans-serif" font-size="14" lengthAdjust="spacing" textLength="106" x="456" y="268.1826">login-styles.css</text><path d="M396,235.1875 L406,235.1875 C421,235.1875 421,263.3359 436,263.3359 L446,263.3359 " fill="none" style="stroke:#181818;stroke-width:1.0;"/><rect fill="#F1F1F1" height="36.2969" rx="12.5" ry="12.5" style="stroke:#181818;stroke-width:1.5;" width="67" x="446" y="357.7813"/><text fill="#000000" font-family="sans-serif" font-size="14" lengthAdjust="spacing" textLength="47" x="456" y="380.7764">Scripts</text><rect fill="#F1F1F1" height="36.2969" rx="12.5" ry="12.5" style="stroke:#181818;stroke-width:1.5;" width="72" x="563" y="301.4844"/><text fill="#000000" font-family="sans-serif" font-size="14" lengthAdjust="spacing" textLength="52" x="573" y="324.4795">index.js</text><path d="M513,375.9297 L523,375.9297 C538,375.9297 538,319.6328 553,319.6328 L563,319.6328 " fill="none" style="stroke:#181818;stroke-width:1.0;"/><rect fill="#F1F1F1" height="36.2969" rx="12.5" ry="12.5" style="stroke:#181818;stroke-width:1.5;" width="77" x="563" y="357.7813"/><text fill="#000000" font-family="sans-serif" font-size="14" lengthAdjust="spacing" textLength="57" x="573" y="380.7764">admin.js</text><path d="M513,375.9297 L523,375.9297 C538,375.9297 538,375.9297 553,375.9297 L563,375.9297 " fill="none" style="stroke:#181818;stroke-width:1.0;"/><rect fill="#F1F1F1" height="36.2969" rx="12.5" ry="12.5" style="stroke:#181818;stroke-width:1.5;" width="111" x="563" y="414.0781"/><text fill="#000000" font-family="sans-serif" font-size="14" lengthAdjust="spacing" textLength="91" x="573" y="437.0732">login-script.js</text><path d="M513,375.9297 L523,375.9297 C538,375.9297 538,432.2266 553,432.2266 L563,432.2266 " fill="none" style="stroke:#181818;stroke-width:1.0;"/><path d="M396,235.1875 L406,235.1875 C421,235.1875 421,375.9297 436,375.9297 L446,375.9297 " fill="none" style="stroke:#181818;stroke-width:1.0;"/><path d="M258,404.0781 L268,404.0781 C283,404.0781 283,235.1875 298,235.1875 L308,235.1875 " fill="none" style="stroke:#181818;stroke-width:1.0;"/><rect fill="#F1F1F1" height="36.2969" rx="12.5" ry="12.5" style="stroke:#181818;stroke-width:1.5;" width="86" x="308" y="498.5234"/><text fill="#000000" font-family="sans-serif" font-size="14" lengthAdjust="spacing" textLength="66" x="318" y="521.5186">Back-End</text><rect fill="#F1F1F1" height="36.2969" rx="12.5" ry="12.5" style="stroke:#181818;stroke-width:1.5;" width="72" x="444" y="470.375"/><text fill="#000000" font-family="sans-serif" font-size="14" lengthAdjust="spacing" textLength="52" x="454" y="493.3701">Node.js</text><path d="M394,516.6719 L404,516.6719 C419,516.6719 419,488.5234 434,488.5234 L444,488.5234 " fill="none" style="stroke:#181818;stroke-width:1.0;"/><rect fill="#F1F1F1" height="36.2969" rx="12.5" ry="12.5" style="stroke:#181818;stroke-width:1.5;" width="90" x="444" y="526.6719"/><text fill="#000000" font-family="sans-serif" font-size="14" lengthAdjust="spacing" textLength="70" x="454" y="549.667">Express.js</text><path d="M394,516.6719 L404,516.6719 C419,516.6719 419,544.8203 434,544.8203 L444,544.8203 " fill="none" style="stroke:#181818;stroke-width:1.0;"/><path d="M258,404.0781 L268,404.0781 C283,404.0781 283,516.6719 298,516.6719 L308,516.6719 " fill="none" style="stroke:#181818;stroke-width:1.0;"/><rect fill="#F1F1F1" height="36.2969" rx="12.5" ry="12.5" style="stroke:#181818;stroke-width:1.5;" width="86" x="308" y="582.9688"/><text fill="#000000" font-family="sans-serif" font-size="14" lengthAdjust="spacing" textLength="66" x="318" y="605.9639">Database</text><rect fill="#F1F1F1" height="36.2969" rx="12.5" ry="12.5" style="stroke:#181818;stroke-width:1.5;" width="89" x="444" y="582.9688"/><text fill="#000000" font-family="sans-serif" font-size="14" lengthAdjust="spacing" textLength="69" x="454" y="605.9639">MongoDB</text><path d="M394,601.1172 L404,601.1172 C419,601.1172 419,601.1172 434,601.1172 L444,601.1172 " fill="none" style="stroke:#181818;stroke-width:1.0;"/><path d="M258,404.0781 L268,404.0781 C283,404.0781 283,601.1172 298,601.1172 L308,601.1172 " fill="none" style="stroke:#181818;stroke-width:1.0;"/><rect fill="#F1F1F1" height="36.2969" rx="12.5" ry="12.5" style="stroke:#181818;stroke-width:1.5;" width="120" x="308" y="639.2656"/><text fill="#000000" font-family="sans-serif" font-size="14" lengthAdjust="spacing" textLength="100" x="318" y="662.2607">Authentication</text><rect fill="#F1F1F1" height="36.2969" rx="12.5" ry="12.5" style="stroke:#181818;stroke-width:1.5;" width="45" x="478" y="639.2656"/><text fill="#000000" font-family="sans-serif" font-size="14" lengthAdjust="spacing" textLength="25" x="488" y="662.2607">JWT</text><path d="M428,657.4141 L438,657.4141 C453,657.4141 453,657.4141 468,657.4141 L478,657.4141 " fill="none" style="stroke:#181818;stroke-width:1.0;"/><path d="M258,404.0781 L268,404.0781 C283,404.0781 283,657.4141 298,657.4141 L308,657.4141 " fill="none" style="stroke:#181818;stroke-width:1.0;"/><rect fill="#F1F1F1" height="36.2969" rx="12.5" ry="12.5" style="stroke:#181818;stroke-width:1.5;" width="104" x="308" y="723.7109"/><text fill="#000000" font-family="sans-serif" font-size="14" lengthAdjust="spacing" textLength="84" x="318" y="746.7061">Deployment</text><rect fill="#F1F1F1" height="36.2969" rx="12.5" ry="12.5" style="stroke:#181818;stroke-width:1.5;" width="70" x="462" y="695.5625"/><text fill="#000000" font-family="sans-serif" font-size="14" lengthAdjust="spacing" textLength="50" x="472" y="718.5576">Docker</text><path d="M412,741.8594 L422,741.8594 C437,741.8594 437,713.7109 452,713.7109 L462,713.7109 " fill="none" style="stroke:#181818;stroke-width:1.0;"/><rect fill="#F1F1F1" height="36.2969" rx="12.5" ry="12.5" style="stroke:#181818;stroke-width:1.5;" width="51" x="462" y="751.8594"/><text fill="#000000" font-family="sans-serif" font-size="14" lengthAdjust="spacing" textLength="31" x="472" y="774.8545">AWS</text><path d="M412,741.8594 L422,741.8594 C437,741.8594 437,770.0078 452,770.0078 L462,770.0078 " fill="none" style="stroke:#181818;stroke-width:1.0;"/><path d="M258,404.0781 L268,404.0781 C283,404.0781 283,741.8594 298,741.8594 L308,741.8594 " fill="none" style="stroke:#181818;stroke-width:1.0;"/><!--SRC=[NL5RQy8m57xFhpYFMh1OSI1zSbeTY1soUdbEssFDJ9EIYzX_lpJMEGPvo7Vbv6Ik3LMcPgAiQKC2E6XKi5Fop3X2IWMji4PX86krmPe40QoL56Qq4gK30RWWtiEBgRc7j7HLByXbzHTgqtBKOQ7rIntz8xD2iSRu-xFzkqUFyYVgqzx-8651Y-llP9-onDuCgtkZKElUbb13SwhHIwaKbKmM7VzkpSMzbHNKC2cykZdjVG8RBjjk4PvDP755vQ_lfupCKPJF3P8Tfy8SqYtSK6bN0r4u6K-cOJJONooiCOTn1D4iTkTj2eVz4ZfvI0OVkoreQLM1K39j5CjjDyQGREYDmfTrWzKOWx2SayqnZI6pkRDHWt1CIO9dQhc1bIXaoKGLk-hrQ4QsL5JMVM8VN4hNeze7-W40]--></g></svg>